<?xml version="1.0" standalone="no"?>
<!DOCTYPE svg PUBLIC "-//W3C//DTD SVG 20010904//EN"
 "http://www.w3.org/TR/2001/REC-SVG-20010904/DTD/svg10.dtd">
<svg version="1.0" xmlns="http://www.w3.org/2000/svg"
 width="1024.000000pt" height="1024.000000pt" viewBox="0 0 1024.000000 1024.000000"
 preserveAspectRatio="xMidYMid meet">
<metadata>
Created by potrace 1.14, written by Peter Selinger 2001-2017
</metadata>
<g transform="translate(0.000000,1024.000000) scale(0.100000,-0.100000)"
fill="#000000" stroke="none">
<path d="M5036 9382 c-4 -6 -21 -9 -39 -7 -18 2 -48 0 -67 -5 -23 -5 43 -9
190 -10 124 -1 266 -5 315 -9 59 -5 92 -3 97 3 5 7 8 7 8 -1 0 -7 8 -13 17
-13 13 0 14 3 5 12 -11 11 -85 16 -329 21 -73 1 -133 4 -133 7 0 11 -40 6 -40
-5 0 -5 -4 -4 -9 4 -6 9 -11 10 -15 3z"/>
<path d="M4866 9373 c-3 -4 -43 -8 -89 -9 -45 -1 -93 -5 -107 -8 -14 -3 -47
-7 -75 -10 -27 -3 -59 -7 -70 -9 -11 -2 -42 -8 -70 -11 -27 -4 -58 -10 -69
-13 -13 -4 -17 -1 -12 8 4 8 1 6 -7 -4 -9 -11 -25 -17 -39 -16 -13 2 -27 1
-33 -2 -8 -5 -72 -20 -97 -23 -3 -1 -10 -5 -15 -10 -4 -5 3 -6 17 -3 134 32
512 86 615 88 47 1 83 13 68 22 -6 4 -13 3 -17 0z"/>
<path d="M5580 9351 c0 -12 20 -17 105 -26 76 -9 66 4 -12 15 -32 4 -66 11
-75 15 -11 4 -18 3 -18 -4z"/>
<path d="M5753 9325 c0 -8 21 -15 56 -19 91 -11 246 -44 403 -87 175 -47 175
-47 165 -42 -4 3 -5 9 -2 14 4 5 0 6 -8 3 -8 -3 -21 1 -28 9 -7 8 -21 12 -31
9 -10 -2 -24 1 -32 7 -7 6 -33 14 -57 17 -24 3 -60 11 -79 17 -19 6 -42 12
-50 13 -8 1 -69 14 -135 29 -66 14 -133 28 -150 30 -16 3 -35 7 -41 9 -6 2
-11 -2 -11 -9z"/>
<path d="M4155 9271 c-12 -10 -98 -33 -137 -35 -14 0 -24 -4 -21 -8 2 -5 -5
-8 -16 -8 -20 0 -96 -22 -136 -40 -26 -11 -78 -24 -88 -22 -4 1 -22 -6 -40
-15 -18 -9 -34 -18 -37 -18 -3 -1 -16 -6 -30 -12 -14 -6 -42 -13 -62 -17 -21
-4 -38 -12 -38 -18 0 -5 -7 -8 -15 -4 -8 3 -20 -1 -27 -8 -7 -7 -37 -21 -65
-31 -29 -10 -53 -23 -53 -27 0 -4 -7 -8 -15 -8 -8 0 -15 -4 -15 -10 0 -5 26 2
58 16 197 90 555 210 713 239 21 4 36 12 36 21 0 17 0 17 -12 5z"/>
<path d="M6400 9170 c0 -5 5 -10 11 -10 5 0 7 5 4 10 -3 6 -8 10 -11 10 -2 0
-4 -4 -4 -10z"/>
<path d="M6455 9148 c191 -64 378 -141 570 -236 114 -56 162 -83 314 -175 21
-13 32 -15 29 -7 -2 7 -32 28 -67 46 -35 19 -69 38 -75 43 -6 4 -40 24 -76 43
-36 19 -76 41 -90 49 -14 7 -27 14 -30 14 -23 4 -50 18 -50 26 0 6 -4 7 -10 4
-5 -3 -10 -1 -10 4 0 6 -9 11 -20 11 -11 0 -20 5 -20 10 0 6 -6 10 -12 10 -7
0 -33 10 -58 22 -25 12 -47 22 -50 23 -3 1 -18 7 -33 13 -16 7 -34 12 -42 12
-8 0 -16 4 -19 9 -3 5 -26 14 -51 20 -25 6 -43 16 -40 21 3 4 -20 14 -50 20
-30 6 -53 15 -51 19 3 4 -17 7 -42 8 -44 1 -45 1 -17 -9z"/>
<path d="M3306 8975 c-8 -8 -22 -15 -31 -15 -9 0 -13 -4 -10 -10 6 -9 85 24
85 35 0 11 -30 4 -44 -10z"/>
<path d="M3226 8934 c-3 -8 -10 -13 -14 -10 -5 3 -18 -1 -28 -9 -17 -13 -18
-14 -1 -15 9 0 17 5 17 10 0 6 3 9 8 8 15 -4 52 14 47 23 -9 14 -22 11 -29 -7z"/>
<path d="M3125 8881 c-6 -5 -50 -30 -99 -55 -49 -25 -82 -46 -72 -46 16 0 50
17 166 84 25 14 38 26 30 26 -9 0 -20 -4 -25 -9z"/>
<path d="M2904 8758 c-7 -11 18 -10 36 2 11 7 10 9 -8 7 -13 -1 -26 -5 -28 -9z"/>
<path d="M2867 8729 c-19 -22 -10 -25 16 -5 10 8 14 17 9 20 -4 3 -16 -4 -25
-15z"/>
<path d="M5023 8582 c-67 -86 -190 -245 -273 -352 -84 -107 -154 -200 -156
-205 -3 -6 20 -312 51 -680 30 -369 69 -839 86 -1045 17 -206 50 -607 74 -890
l42 -515 -385 -642 c-212 -354 -388 -643 -391 -643 -10 0 -76 109 -119 195
-74 149 -127 346 -164 605 -9 67 -13 210 -13 480 1 473 9 572 130 1560 84 689
115 1031 115 1276 l0 131 -201 184 c-110 101 -211 193 -223 204 -13 11 -67 61
-122 111 -54 50 -169 155 -254 232 l-155 141 -7 -167 c-19 -457 -31 -677 -54
-1012 -42 -619 -63 -964 -75 -1244 -15 -345 -6 -1089 15 -1311 56 -585 161
-996 346 -1353 98 -188 182 -305 332 -456 71 -71 128 -131 128 -133 0 -6 96
-149 326 -485 82 -120 212 -310 289 -423 77 -113 238 -348 357 -523 119 -174
261 -381 314 -460 54 -78 101 -139 104 -135 4 5 308 458 676 1008 535 800 669
1006 668 1030 -1 25 9 38 63 84 150 125 317 350 428 576 139 285 226 590 284
1000 42 290 53 469 58 926 7 543 0 736 -67 1839 -26 449 -38 695 -46 997 -6
235 -8 251 -24 240 -10 -7 -229 -205 -489 -440 l-471 -429 0 -141 c0 -278 29
-595 144 -1602 72 -624 90 -907 83 -1318 -4 -261 -9 -348 -26 -460 -41 -264
-110 -478 -206 -637 -27 -44 -50 -79 -51 -77 -1 1 -151 259 -334 572 -183 314
-349 598 -371 632 l-38 63 39 402 c21 222 57 594 80 828 22 234 54 562 70 730
43 448 99 1035 106 1110 l6 65 -286 358 c-157 196 -287 357 -289 357 -1 0 -57
-71 -124 -158z m243 -357 c84 -180 107 -239 106 -270 -1 -22 -46 -512 -101
-1090 -55 -577 -103 -1086 -107 -1130 -11 -130 -19 -125 -32 22 -7 76 -23 253
-37 393 -14 140 -50 516 -80 835 -30 319 -64 675 -75 791 -17 185 -18 215 -6
240 36 72 180 383 193 417 9 21 19 35 24 30 4 -4 56 -111 115 -238z m-29
-4060 c339 -542 533 -856 533 -864 0 -10 -108 -55 -155 -65 l-30 -6 -229 400
c-126 220 -232 400 -237 400 -4 0 -29 -39 -57 -87 -27 -49 -111 -196 -187
-328 -76 -132 -156 -271 -178 -310 -22 -38 -41 -72 -43 -74 -4 -4 -135 36
-153 48 -11 7 -4 24 34 87 96 159 599 964 600 961 1 -1 47 -74 102 -162z m335
-1657 c-77 -123 -206 -331 -288 -462 -144 -233 -148 -238 -163 -216 -38 56
-548 875 -546 877 6 9 222 -30 230 -41 6 -7 77 -131 160 -275 82 -143 152
-261 155 -261 4 0 22 28 41 63 35 62 280 490 284 495 1 1 58 11 125 22 68 12
126 23 129 25 2 3 6 3 9 1 2 -2 -59 -105 -136 -228z"/>
<path d="M7400 8700 c14 -11 32 -20 40 -20 8 0 0 9 -18 20 -41 25 -55 25 -22
0z"/>
<path d="M2785 8681 c-27 -16 -51 -35 -54 -42 -2 -7 10 -4 30 10 19 12 44 27
57 33 12 6 22 15 22 20 0 11 3 12 -55 -21z"/>
<path d="M7458 8663 c7 -3 16 -2 19 1 4 3 -2 6 -13 5 -11 0 -14 -3 -6 -6z"/>
<path d="M7490 8640 c20 -13 33 -13 25 0 -3 6 -14 10 -23 10 -15 0 -15 -2 -2
-10z"/>
<path d="M2665 8597 l-30 -30 35 21 c19 12 36 26 38 31 6 19 -12 10 -43 -22z"/>
<path d="M7545 8611 c-3 -6 5 -15 17 -22 29 -16 182 -132 186 -141 2 -5 13 -8
25 -8 20 0 19 2 -6 15 -16 8 -41 27 -55 43 -15 15 -51 42 -79 61 -29 18 -51
37 -48 41 3 4 -2 11 -11 14 -20 8 -22 8 -29 -3z"/>
<path d="M2575 8534 c-27 -19 -55 -40 -60 -47 -6 -6 -35 -32 -65 -57 -30 -24
-56 -48 -58 -52 -2 -5 -10 -8 -18 -8 -8 0 -14 -4 -14 -10 0 -5 -8 -7 -17 -4
-15 5 -16 4 -3 -5 8 -6 10 -11 4 -11 -11 0 -19 -7 -139 -120 -44 -41 -79 -78
-77 -82 1 -5 -5 -8 -13 -8 -8 0 -14 -6 -13 -12 2 -7 -3 -12 -10 -10 -8 1 -11
-2 -7 -8 3 -5 1 -10 -6 -10 -7 0 -9 -3 -5 -7 4 -4 49 35 100 87 51 52 114 113
141 135 27 22 70 58 95 81 26 22 64 53 86 69 21 16 53 42 71 56 17 15 40 32
50 37 10 6 16 13 13 15 -3 3 -27 -11 -55 -29z"/>
<path d="M7781 8427 c2 -1 14 -11 27 -21 12 -11 22 -16 22 -13 0 10 -31 37
-42 37 -6 0 -9 -1 -7 -3z"/>
<path d="M7844 8388 c-8 -12 30 -48 50 -48 6 0 -1 10 -17 21 -15 11 -25 25
-21 30 3 5 3 9 0 9 -3 0 -8 -5 -12 -12z"/>
<path d="M7905 8331 c-3 -6 8 -19 24 -29 17 -10 28 -22 23 -27 -4 -5 -1 -5 6
0 11 6 10 11 -5 24 -10 9 -23 22 -30 29 -7 9 -13 10 -18 3z"/>
<path d="M8035 8203 c27 -27 70 -70 96 -97 29 -30 49 -44 53 -37 4 6 -1 14
-11 18 -20 8 -49 44 -45 56 1 5 -1 6 -6 3 -5 -3 -21 7 -34 22 -39 41 -85 82
-94 82 -4 0 14 -21 41 -47z"/>
<path d="M2025 8050 c-16 -17 -26 -30 -22 -30 4 0 -7 -14 -25 -31 -19 -17 -24
-26 -13 -20 31 15 108 98 97 104 -5 4 -22 -7 -37 -23z m35 17 c0 -2 -12 -14
-27 -28 l-28 -24 24 28 c23 25 31 32 31 24z"/>
<path d="M8190 8053 c0 -11 78 -89 83 -82 1 2 -16 24 -40 48 -24 24 -43 39
-43 34z"/>
<path d="M8280 7956 c0 -11 63 -76 74 -76 6 0 -1 11 -16 24 -15 13 -24 26 -22
29 3 3 -4 10 -15 17 -12 6 -21 8 -21 6z"/>
<path d="M1890 7893 c-25 -31 -55 -67 -67 -80 -13 -13 -23 -27 -23 -31 0 -4
-13 -21 -28 -38 -64 -74 -75 -89 -94 -120 -11 -19 -25 -31 -31 -27 -6 3 -7 1
-3 -6 4 -6 2 -19 -5 -27 -6 -8 -9 -17 -6 -20 3 -3 11 5 18 18 20 38 163 224
239 312 52 60 63 76 54 76 -5 0 -29 -26 -54 -57z"/>
<path d="M8386 7828 c10 -14 21 -24 23 -22 3 3 -6 15 -18 27 l-24 22 19 -27z"/>
<path d="M8420 7803 c0 -14 67 -106 81 -111 14 -6 10 7 -8 26 -26 28 -49 57
-61 78 -6 11 -12 13 -12 7z"/>
<path d="M8510 7666 c0 -2 7 -9 15 -16 12 -10 15 -10 15 4 0 9 -7 16 -15 16
-8 0 -15 -2 -15 -4z"/>
<path d="M8550 7621 c0 -10 29 -36 34 -30 1 2 -6 12 -16 22 -10 9 -18 13 -18
8z"/>
<path d="M1596 7510 c-9 -17 -13 -30 -8 -30 9 0 35 50 29 56 -2 2 -11 -10 -21
-26z"/>
<path d="M8630 7513 c0 -6 8 -21 19 -34 10 -13 20 -29 22 -34 11 -28 112 -175
117 -170 3 3 -4 19 -16 35 -12 16 -22 33 -22 38 0 5 -9 17 -19 26 -11 10 -27
32 -36 49 -22 43 -65 102 -65 90z"/>
<path d="M1556 7455 c-3 -8 -1 -15 3 -15 5 0 11 7 15 15 3 8 1 15 -3 15 -5 0
-11 -7 -15 -15z"/>
<path d="M1533 7413 c-3 -10 -8 -21 -10 -25 -10 -19 6 -5 21 17 9 14 12 25 6
25 -6 0 -13 -8 -17 -17z"/>
<path d="M1495 7360 c-3 -6 1 -7 9 -4 18 7 21 14 7 14 -6 0 -13 -4 -16 -10z"/>
<path d="M1478 7315 c-6 -14 -15 -25 -20 -25 -4 0 -8 -5 -8 -11 0 -5 5 -7 10
-4 12 7 43 65 35 65 -3 0 -11 -11 -17 -25z"/>
<path d="M1414 7215 c-14 -25 -24 -48 -21 -51 3 -3 17 17 31 45 31 63 26 66
-10 6z"/>
<path d="M8813 7215 c7 -14 16 -25 20 -25 9 0 -9 36 -22 44 -5 4 -4 -5 2 -19z"/>
<path d="M8840 7173 c0 -4 5 -15 10 -23 8 -13 10 -13 10 2 0 9 -4 20 -10 23
-5 3 -10 3 -10 -2z"/>
<path d="M1371 7132 c-17 -31 -13 -40 5 -14 9 13 14 26 11 29 -3 2 -10 -4 -16
-15z"/>
<path d="M8873 7105 c20 -50 35 -70 44 -62 4 5 0 13 -10 18 -9 6 -17 16 -17
23 0 7 -7 21 -15 32 -14 17 -14 16 -2 -11z"/>
<path d="M1341 7093 c-1 -6 -4 -20 -7 -30 -5 -17 -5 -17 6 0 6 10 9 23 6 30
-3 9 -5 9 -5 0z"/>
<path d="M1312 7035 c4 -4 3 -16 -3 -27 -6 -11 -9 -22 -6 -24 2 -2 9 7 15 21
9 18 8 26 -1 31 -7 4 -9 4 -5 -1z"/>
<path d="M8916 7017 c3 -10 9 -15 12 -12 3 3 0 11 -7 18 -10 9 -11 8 -5 -6z"/>
<path d="M1284 6962 c-13 -9 -26 -42 -16 -42 4 0 12 11 19 25 6 14 10 25 10
25 -1 0 -7 -4 -13 -8z"/>
<path d="M8970 6905 c35 -76 50 -99 50 -73 0 9 -7 24 -16 32 -8 9 -12 16 -9
16 4 0 -3 17 -16 38 -38 64 -41 60 -9 -13z"/>
<path d="M1231 6854 c-6 -15 -9 -29 -7 -32 3 -2 10 8 16 23 14 36 7 43 -9 9z"/>
<path d="M1196 6765 c-9 -26 -7 -32 5 -12 6 10 9 21 6 23 -2 3 -7 -2 -11 -11z"/>
<path d="M9030 6774 c1 -16 29 -60 29 -44 0 8 -6 24 -14 34 -8 11 -15 16 -15
10z"/>
<path d="M1172 6726 c4 -5 -2 -31 -13 -58 -11 -28 -17 -53 -14 -56 3 -3 5 -2
5 1 0 3 9 29 20 56 15 38 16 52 7 57 -7 4 -9 4 -5 0z"/>
<path d="M9080 6645 c0 -5 5 -17 10 -25 5 -8 10 -10 10 -5 0 6 -5 17 -10 25
-5 8 -10 11 -10 5z"/>
<path d="M1127 6593 c-4 -3 -7 -11 -7 -17 0 -6 5 -5 12 2 6 6 9 14 7 17 -3 3
-9 2 -12 -2z"/>
<path d="M9125 6549 c-4 -6 -5 -12 -2 -15 2 -3 7 2 10 11 7 17 1 20 -8 4z"/>
<path d="M9130 6511 c0 -6 5 -13 10 -16 6 -3 10 1 10 9 0 9 -4 16 -10 16 -5 0
-10 -4 -10 -9z"/>
<path d="M1087 6495 c-4 -8 -1 -17 6 -21 7 -4 9 -4 5 1 -4 4 -3 14 3 22 7 8 8
13 1 13 -5 0 -12 -7 -15 -15z"/>
<path d="M9147 6456 c3 -15 10 -29 15 -32 6 -4 7 2 3 17 -10 35 -23 45 -18 15z"/>
<path d="M1075 6446 c-3 -9 -7 -23 -10 -31 -2 -8 -2 -15 1 -15 7 0 25 52 20
58 -3 3 -8 -3 -11 -12z"/>
<path d="M9170 6390 c0 -8 5 -22 10 -30 9 -13 10 -13 10 0 0 8 -5 22 -10 30
-9 13 -10 13 -10 0z"/>
<path d="M1051 6359 c-6 -18 -11 -37 -10 -43 0 -6 7 7 15 28 8 22 12 41 10 43
-2 2 -9 -10 -15 -28z"/>
<path d="M9191 6315 c1 -19 18 -51 18 -35 0 8 -4 22 -9 30 -5 8 -9 11 -9 5z"/>
<path d="M1016 6243 c-3 -10 -9 -24 -12 -30 -3 -7 -1 -13 4 -13 5 0 13 12 16
26 8 30 2 44 -8 17z"/>
<path d="M9211 6255 c1 -19 18 -51 18 -35 0 8 -4 22 -9 30 -5 8 -9 11 -9 5z"/>
<path d="M9231 6190 c0 -8 6 -40 14 -70 7 -30 14 -46 14 -35 0 11 -6 43 -13
70 -8 28 -14 43 -15 35z"/>
<path d="M987 6140 c-8 -23 -29 -131 -33 -170 -2 -19 7 10 21 65 13 55 23 105
21 110 -2 6 -6 3 -9 -5z"/>
<path d="M9261 6044 c0 -11 3 -14 6 -6 3 7 2 16 -1 19 -3 4 -6 -2 -5 -13z"/>
<path d="M9291 5920 c0 -8 4 -24 9 -35 5 -13 9 -14 9 -5 0 8 -4 24 -9 35 -5
13 -9 14 -9 5z"/>
<path d="M928 5866 c-3 -14 -2 -30 2 -36 4 -6 7 5 8 25 2 40 -4 46 -10 11z"/>
<path d="M9310 5790 c0 -11 2 -20 4 -20 2 0 6 9 9 20 3 11 1 20 -4 20 -5 0 -9
-9 -9 -20z"/>
<path d="M916 5781 c-4 -7 -5 -15 -2 -18 9 -9 19 4 14 18 -4 11 -6 11 -12 0z"/>
<path d="M9325 5725 c3 -22 5 -55 5 -72 0 -18 4 -33 8 -33 8 0 -3 115 -13 135
-3 6 -3 -8 0 -30z"/>
<path d="M912 5720 c0 -19 2 -27 5 -17 2 9 2 25 0 35 -3 9 -5 1 -5 -18z"/>
<path d="M896 5654 c-4 -15 -2 -32 3 -37 8 -8 11 0 11 26 0 44 -5 47 -14 11z"/>
<path d="M885 5515 c-4 -36 -5 -68 -3 -71 3 -2 8 25 12 62 4 37 5 69 2 71 -2
3 -7 -25 -11 -62z"/>
<path d="M9342 5540 c0 -14 2 -19 5 -12 2 6 2 18 0 25 -3 6 -5 1 -5 -13z"/>
<path d="M9350 5449 c0 -24 5 -51 10 -59 7 -10 8 2 4 40 -8 69 -14 77 -14 19z"/>
<path d="M868 5385 c-2 -19 0 -35 4 -35 4 0 8 16 8 35 0 19 -2 35 -4 35 -2 0
-6 -16 -8 -35z"/>
<path d="M9361 5324 c0 -11 3 -14 6 -6 3 7 2 16 -1 19 -3 4 -6 -2 -5 -13z"/>
<path d="M869 5253 c0 -21 -1 -68 -2 -106 -1 -37 1 -67 6 -67 4 0 7 47 7 105
0 58 -2 105 -5 105 -3 0 -5 -17 -6 -37z"/>
<path d="M9360 5195 c0 -43 3 -76 6 -72 3 3 6 36 6 72 0 36 -3 69 -6 72 -3 4
-6 -29 -6 -72z"/>
<path d="M9361 5028 c1 -55 5 -50 11 15 2 20 0 37 -4 37 -4 0 -7 -24 -7 -52z"/>
<path d="M868 5020 c-1 -28 0 -50 5 -50 4 0 7 23 7 50 0 65 -7 65 -12 0z"/>
<path d="M9362 4925 c0 -16 2 -22 5 -12 2 9 2 23 0 30 -3 6 -5 -1 -5 -18z"/>
<path d="M872 4920 c0 -14 2 -19 5 -12 2 6 2 18 0 25 -3 6 -5 1 -5 -13z"/>
<path d="M878 4795 c2 -19 6 -35 8 -35 2 0 4 16 4 35 0 19 -4 35 -8 35 -4 0
-6 -16 -4 -35z"/>
<path d="M9350 4798 c0 -23 3 -29 9 -19 8 12 4 51 -5 51 -2 0 -4 -15 -4 -32z"/>
<path d="M9342 4700 c0 -14 2 -19 5 -12 2 6 2 18 0 25 -3 6 -5 1 -5 -13z"/>
<path d="M9332 4615 c0 -16 2 -22 5 -12 2 9 2 23 0 30 -3 6 -5 -1 -5 -18z"/>
<path d="M902 4610 c0 -14 2 -19 5 -12 2 6 2 18 0 25 -3 6 -5 1 -5 -13z"/>
<path d="M896 4563 c-6 -14 -5 -15 5 -6 7 7 10 15 7 18 -3 3 -9 -2 -12 -12z"/>
<path d="M9322 4535 c0 -16 2 -22 5 -12 2 9 2 23 0 30 -3 6 -5 -1 -5 -18z"/>
<path d="M912 4520 c0 -14 2 -19 5 -12 2 6 2 18 0 25 -3 6 -5 1 -5 -13z"/>
<path d="M921 4454 c0 -11 3 -14 6 -6 3 7 2 16 -1 19 -3 4 -6 -2 -5 -13z"/>
<path d="M9300 4396 c0 -31 6 -34 13 -6 3 11 1 23 -4 26 -5 3 -9 -6 -9 -20z"/>
<path d="M9266 4215 c-3 -9 -6 -24 -5 -33 0 -9 5 -4 10 12 9 32 6 48 -5 21z"/>
<path d="M981 4144 c0 -11 3 -14 6 -6 3 7 2 16 -1 19 -3 4 -6 -2 -5 -13z"/>
<path d="M1020 3960 c0 -5 5 -10 11 -10 5 0 7 5 4 10 -3 6 -8 10 -11 10 -2 0
-4 -4 -4 -10z"/>
<path d="M9190 3909 c0 -5 5 -7 10 -4 6 3 10 8 10 11 0 2 -4 4 -10 4 -5 0 -10
-5 -10 -11z"/>
<path d="M9176 3865 c-9 -26 -7 -32 5 -12 6 10 9 21 6 23 -2 3 -7 -2 -11 -11z"/>
<path d="M9135 3740 c-3 -5 -1 -10 4 -10 6 0 11 5 11 10 0 6 -2 10 -4 10 -3 0
-8 -4 -11 -10z"/>
<path d="M1102 3720 c0 -14 2 -19 5 -12 2 6 2 18 0 25 -3 6 -5 1 -5 -13z"/>
<path d="M1131 3650 c0 -8 4 -22 9 -30 12 -18 12 -2 0 25 -6 13 -9 15 -9 5z"/>
<path d="M8926 3243 c-6 -14 -5 -15 5 -6 7 7 10 15 7 18 -3 3 -9 -2 -12 -12z"/>
<path d="M8886 3163 c-6 -14 -5 -15 5 -6 7 7 10 15 7 18 -3 3 -9 -2 -12 -12z"/>
<path d="M1411 3040 c14 -31 19 -36 19 -24 0 6 -7 19 -16 30 -14 18 -14 18 -3
-6z"/>
<path d="M8796 2993 c-6 -14 -5 -15 5 -6 7 7 10 15 7 18 -3 3 -9 -2 -12 -12z"/>
<path d="M1465 2940 c3 -5 8 -10 11 -10 2 0 4 5 4 10 0 6 -5 10 -11 10 -5 0
-7 -4 -4 -10z"/>
<path d="M1490 2900 c6 -11 13 -20 16 -20 2 0 0 9 -6 20 -6 11 -13 20 -16 20
-2 0 0 -9 6 -20z"/>
<path d="M8705 2849 c-4 -6 -5 -12 -2 -15 2 -3 7 2 10 11 7 17 1 20 -8 4z"/>
<path d="M1600 2731 c0 -6 4 -13 10 -16 6 -3 7 1 4 9 -7 18 -14 21 -14 7z"/>
<path d="M8475 2520 c-3 -6 1 -7 9 -4 18 7 21 14 7 14 -6 0 -13 -4 -16 -10z"/>
<path d="M1950 2286 c0 -2 8 -10 18 -17 15 -13 16 -12 3 4 -13 16 -21 21 -21
13z"/>
<path d="M1981 2247 c2 -1 13 -9 24 -17 19 -14 19 -14 6 3 -7 9 -18 17 -24 17
-6 0 -8 -1 -6 -3z"/>
<path d="M8069 2073 c-13 -16 -12 -17 4 -4 16 13 21 21 13 21 -2 0 -10 -8 -17
-17z"/>
<path d="M2360 1886 c0 -2 8 -10 18 -17 15 -13 16 -12 3 4 -13 16 -21 21 -21
13z"/>
<path d="M7550 1640 c-8 -5 -10 -10 -5 -10 6 0 17 5 25 10 8 5 11 10 5 10 -5
0 -17 -5 -25 -10z"/>
<path d="M2987 1439 c7 -7 15 -10 18 -7 3 3 -2 9 -12 12 -14 6 -15 5 -6 -5z"/>
<path d="M3070 1390 c8 -5 20 -10 25 -10 6 0 3 5 -5 10 -8 5 -19 10 -25 10 -5
0 -3 -5 5 -10z"/>
<path d="M3248 1298 c5 -5 16 -8 23 -6 8 3 3 7 -10 11 -17 4 -21 3 -13 -5z"/>
<path d="M6248 1023 c7 -3 16 -2 19 1 4 3 -2 6 -13 5 -11 0 -14 -3 -6 -6z"/>
<path d="M4508 913 c7 -3 16 -2 19 1 4 3 -2 6 -13 5 -11 0 -14 -3 -6 -6z"/>
<path d="M5608 903 c6 -2 18 -2 25 0 6 3 1 5 -13 5 -14 0 -19 -2 -12 -5z"/>
<path d="M5428 883 c7 -3 16 -2 19 1 4 3 -2 6 -13 5 -11 0 -14 -3 -6 -6z"/>
<path d="M5120 869 c0 -5 5 -7 10 -4 6 3 10 8 10 11 0 2 -4 4 -10 4 -5 0 -10
-5 -10 -11z"/>
<path d="M5298 873 c7 -3 16 -2 19 1 4 3 -2 6 -13 5 -11 0 -14 -3 -6 -6z"/>
</g>
</svg>
